HIERARCHY
ROOT Hips
{
  OFFSET 16.9005 95.9891 -11.0274
  CHANNELS 6 Xposition Yposition Zposition Zrotation Xrotation Yrotation
  JOINT Spine
  {
    OFFSET 1.91935e-005 13.8508 -0.0115798
    CHANNELS 3 Zrotation Xrotation Yrotation
    JOINT Spine1
    {
      OFFSET 2.01671e-005 14.5489 -0.00726093
      CHANNELS 3 Zrotation Xrotation Yrotation
      JOINT Spine2
      {
        OFFSET 3.28232e-005 23.6683 -0.00102819
        CHANNELS 3 Zrotation Xrotation Yrotation
        JOINT Neck
        {
          OFFSET 5.3339e-005 39.6533 18.0245
          CHANNELS 3 Zrotation Xrotation Yrotation
          End Site
          {
            OFFSET 2.57534e-005 6.58935 12.9891
          }
        }
        JOINT RightShoulder
        {
          OFFSET -3.40283 45.3991 -4.38505
          CHANNELS 3 Zrotation Xrotation Yrotation
          JOINT RightArm
          {
            OFFSET -47.8656 0.792585 6.00882e-005
            CHANNELS 3 Zrotation Xrotation Yrotation
            JOINT RightArmRoll
            {
              OFFSET 0 0 0
              CHANNELS 3 Zrotation Xrotation Yrotation
              JOINT RightForeArm
              {
                OFFSET -46.3984 -1.27243 -0.127619
                CHANNELS 3 Zrotation Xrotation Yrotation
                JOINT RightForeArmRoll
                {
                  OFFSET 0 0 0
                  CHANNELS 3 Zrotation Xrotation Yrotation
                  JOINT RightHand
                  {
                    OFFSET -60.793 -1.80179 1.17392
                    CHANNELS 3 Zrotation Xrotation Yrotation
                    JOINT RightHandMiddle1
                    {
                      OFFSET -33.8536 2.82406 3.45537
                      CHANNELS 3 Zrotation Xrotation Yrotation
                      JOINT RightHandMiddle2
                      {
                        OFFSET -20.444 -2.79565 1.03697
                        CHANNELS 3 Zrotation Xrotation Yrotation
                        End Site
                        {
                          OFFSET -15.1741 -2.07501 0.76966
                        }
                      }
                    }
                  }
                }
              }
            }
          }
        }
        JOINT LeftShoulder
        {
          OFFSET 3.40295 45.3991 -4.38507
          CHANNELS 3 Zrotation Xrotation Yrotation
          JOINT LeftArm
          {
            OFFSET 47.8656 0.792458 -6.16846e-005
            CHANNELS 3 Zrotation Xrotation Yrotation
            JOINT LeftArmRoll
            {
              OFFSET 0 0 0
              CHANNELS 3 Zrotation Xrotation Yrotation
              JOINT LeftForeArm
              {
                OFFSET 46.3984 -1.27255 -0.127733
                CHANNELS 3 Zrotation Xrotation Yrotation
                JOINT LeftForeArmRoll
                {
                  OFFSET 0 0 0
                  CHANNELS 3 Zrotation Xrotation Yrotation
                  JOINT LeftHand
                  {
                    OFFSET 60.793 -1.80194 1.17376
                    CHANNELS 3 Zrotation Xrotation Yrotation
                    JOINT LeftHandMiddle1
                    {
                      OFFSET 33.8536 2.82397 3.45529
                      CHANNELS 3 Zrotation Xrotation Yrotation
                      JOINT LeftHandMiddle2
                      {
                        OFFSET 20.444 -2.79572 1.03691
                        CHANNELS 3 Zrotation Xrotation Yrotation
                        End Site
                        {
                          OFFSET 15.174 -2.07503 0.76962
                        }
                      }
                    }
                  }
                }
              }
            }
          }
        }
      }
    }
  }
  JOINT RightUpLeg
  {
    OFFSET -16.1028 2.3822e-005 2.51345e-005
    CHANNELS 3 Zrotation Xrotation Yrotation
    JOINT RightUpLegRoll
    {
      OFFSET 0 0 0
      CHANNELS 3 Zrotation Xrotation Yrotation
      JOINT RightLeg
      {
        OFFSET -2.53836 -32.8386 2.11422
        CHANNELS 3 Zrotation Xrotation Yrotation
        JOINT RightLegRoll
        {
          OFFSET 0 0 0
          CHANNELS 3 Zrotation Xrotation Yrotation
          JOINT RightFoot
          {
            OFFSET -2.61774 -34.4235 -3.34224
            CHANNELS 3 Zrotation Xrotation Yrotation
            JOINT RightToeBase
            {
              OFFSET -5.26104 -23.2561 32.3599
              CHANNELS 3 Zrotation Xrotation Yrotation
              End Site
              {
                OFFSET 0 0 0
              }
            }
            JOINT RightFootPinky1
            {
              OFFSET -5.26105 -23.2561 32.3599
              CHANNELS 3 Zrotation Xrotation Yrotation
              End Site
              {
                OFFSET 0 0 0
              }
            }
          }
        }
      }
    }
  }
  JOINT LeftUpLeg
  {
    OFFSET 16.1028 -2.1007e-005 -1.60204e-005
    CHANNELS 3 Zrotation Xrotation Yrotation
    JOINT LeftUpLegRoll
    {
      OFFSET 0 0 0
      CHANNELS 3 Zrotation Xrotation Yrotation
      JOINT LeftLeg
      {
        OFFSET 2.53826 -32.8386 2.11421
        CHANNELS 3 Zrotation Xrotation Yrotation
        JOINT LeftLegRoll
        {
          OFFSET 0 0 0
          CHANNELS 3 Zrotation Xrotation Yrotation
          JOINT LeftFoot
          {
            OFFSET 2.61762 -34.4235 -3.34225
            CHANNELS 3 Zrotation Xrotation Yrotation
            JOINT LeftToeBase
            {
              OFFSET 5.26106 -23.2562 32.3598
              CHANNELS 3 Zrotation Xrotation Yrotation
              End Site
              {
                OFFSET 0 0 0
              }
            }
            JOINT LeftFootPinky1
            {
              OFFSET 5.26106 -23.2562 32.3598
              CHANNELS 3 Zrotation Xrotation Yrotation
              End Site
              {
                OFFSET 0 0 0
              }
            }
          }
        }
      }
    }
  }
}
MOTION
Frames:	11
Frame Time:	0.0333333
16.2523 97.0887 -10.5426 6.71312 -1.86152 11.1532 -0.093505 8.30374 -0.467475 -0.119711 16.6079 -0.935982 -0.119716 16.6075 -0.93599 -6.00767 0.735119 1.54329 24.9541 2.85678 5.64442 62.2867 41.8694 -34.1275 2.37107e-007 -4.81506e-007 -2.66346e-007 4.82804 0.738683 48.3437 0.314312 -22.0737 -0.601068 -28.2615 -4.38365 11.6537 62.8132 2.74786 -1.20184 62.8132 2.74786 -1.20183 -20.8019 2.25973 -4.76465 -83.3627 -35.0392 -63.6848 -2.26607e-007 -4.29426e-006 3.41135e-007 -7.55074 5.41408 -102.247 -0.310304 -55.4488 1.62176 -9.34177 0.196006 24.1512 -62.8132 2.74786 1.20184 -62.8132 2.74786 1.20183 -12.2695 -40.2035 -2.99199 -6.66193e-006 9.38264e-012 -4.28911e-007 7.84204 66.731 -10.9941 -1.49206 -0.896139 -14.1611 -0.80555 -7.69926 1.1696 10.5249 -10.0799 0.14391 7.95139e-016 -3.18055e-015 -7.95139e-016 -4.49686 -16.5403 8.1166 -3.33096e-006 4.6945e-012 -2.14454e-007 -1.38067 36.2083 3.33221 0.822746 -0.555729 8.06143 -0.0700696 -15.5743 -1.33382 -0.450161 -0.281394 0.00288991 9.93923e-017 0 -0 
15.3161 99.0007 -9.76679 7.09769 -1.0811 9.88945 0.487919 8.3691 -0.31361 1.03951 16.7355 -0.711381 1.0395 16.7356 -0.711392 -6.20359 4.60509 1.58388 25.2219 2.78844 5.36091 62.0322 34.7527 -39.5743 2.37107e-007 -4.81506e-007 -2.66346e-007 5.39225 1.15277 55.0711 0.271475 -17.9474 -0.493405 -28.3572 -3.75124 9.74753 62.8132 2.74786 -1.20184 62.8132 2.74786 -1.20183 -17.822 1.68967 -3.38306 -88.6984 -41.0559 -69.2829 -2.26607e-007 -4.29426e-006 3.41135e-007 -7.54707 6.1281 -108.977 -0.0502699 -65.0439 2.13335 -5.10375 1.01926 25.6466 -62.8132 2.74786 1.20184 -62.8132 2.74786 1.20183 -14.541 -36.3199 -5.73769 -6.66193e-006 9.38582e-012 -4.28911e-007 4.1455 56.0322 -6.89694 -1.54937 -0.921239 -14.6692 -4.57202 -5.46434 1.14966 9.71221 -5.54083 -0.0470867 3.57812e-015 1.59028e-015 -3.18055e-015 -5.19916 -11.0252 7.98013 -3.33096e-006 4.69132e-012 -2.14454e-007 -0.688325 25.5389 2.15308 0.975658 -0.641516 9.48471 -0.827195 -10.9504 -1.1924 -0.456531 -0.217903 0.00885715 0 0 -0 
14.2544 101.108 -8.73227 6.91128 0.0189145 8.09389 1.28964 8.30093 -0.188849 2.64983 16.5959 -0.578349 2.64985 16.5965 -0.578329 -5.27527 5.62516 0.626981 24.9885 2.7074 5.17628 59.4261 28.7881 -44.1108 2.37107e-007 -4.81506e-007 -2.66346e-007 5.80639 1.53716 60.4443 0.233233 -14.7373 -0.409015 -27.0793 -2.94977 7.72848 62.8132 2.74786 -1.20184 62.8132 2.74786 -1.20183 -15.8152 1.29616 -2.24199 -87.7246 -48.7649 -68.4649 -2.26607e-007 -4.29426e-006 3.41135e-007 -7.51574 6.47683 -112.33 0.0336 -66.8375 2.26311 -3.43303 1.34706 25.5213 -62.8132 2.74786 1.20184 -62.8132 2.74786 1.20183 -15.3557 -30.646 -6.1261 -6.66193e-006 9.39536e-012 -4.28911e-007 1.9115 41.8756 -4.10319 -1.39568 -0.852551 -13.302 -4.63119 -4.13483 1.0386 3.54069 -2.76815 -0.0116909 -1.98785e-016 7.95139e-016 1.59028e-015 -5.72251 -2.02875 8.06901 -3.33096e-006 4.6937e-012 -2.14454e-007 -0.0988372 7.56536 0.575645 1.21517 -0.766121 11.6769 -0.848809 -2.64849 -0.674897 -0.425234 -0.497613 -0.0131197 9.93923e-017 1.98785e-016 -0 
13.135 102.714 -7.46212 6.39988 1.4629 5.87926 2.12052 8.01724 -0.0766687 4.31664 16.0261 -0.463545 4.31662 16.0258 -0.463622 -3.54999 6.17131 -0.89115 24.5816 2.63512 5.058 54.9546 24.8385 -47.6484 2.37107e-007 -4.81506e-007 -2.66346e-007 6.00718 1.74526 63.2307 0.205416 -12.6028 -0.352329 -24.4146 -2.17126 5.9856 62.8132 2.74786 -1.20184 62.8132 2.74786 -1.20183 -15.1839 1.12995 -1.63151 -74.3403 -55.5774 -55.7101 -2.26607e-007 -4.29426e-006 3.41135e-007 -7.51645 6.46924 -112.286 -0.19957 -60.6901 1.87128 -5.02551 0.979994 23.6799 -62.8132 2.74786 1.20184 -62.8132 2.74786 1.20183 -15.927 -25.0227 -5.30416 -6.66193e-006 9.389e-012 -4.28911e-007 0.776624 27.22 -2.31615 -1.25072 -0.78367 -11.9987 -0.597391 -3.75799 0.7544 -0.709735 -0.54445 -0.0647657 -9.44227e-016 7.95139e-016 -3.18055e-015 -5.82674 6.78302 7.65494 -3.33096e-006 4.69291e-012 -2.14454e-007 0.00715029 -10.6495 -0.814224 1.58666 -0.937203 14.9989 -0.747222 6.64692 -0.120464 -0.324643 -1.62377 -0.131879 -1.98785e-016 -7.95139e-016 -0 
11.9867 103.491 -6.06967 6.16626 3.40176 3.39937 2.74171 7.52716 0.0857257 5.54486 15.0498 -0.198131 5.54486 15.0498 -0.198125 -0.653442 7.50764 -3.10888 24.7238 2.58714 4.84668 49.3248 22.2488 -50.9283 2.37107e-007 -4.81506e-007 -2.66346e-007 6.11666 1.86868 64.8163 0.178604 -10.6734 -0.300554 -21.4383 -1.55648 4.55577 62.8132 2.74786 -1.20184 62.8132 2.74786 -1.20183 -14.8432 1.05908 -1.38609 -50.5059 -54.6434 -32.512 -2.26607e-007 -4.29426e-006 3.41135e-007 -7.5404 6.23086 -109.981 -0.382203 -49.0005 1.37353 -8.33414 0.342214 19.8705 -62.8132 2.74786 1.20184 -62.8132 2.74786 1.20183 -18.4665 -20.1856 -5.00543 -6.66193e-006 9.37946e-012 -4.28911e-007 0.151517 10.2381 -0.802015 -1.18906 -0.75313 -11.4399 7.42832 2.23162 -0.783905 1.87817 -0.32935 0.323053 -1.98785e-016 -3.18055e-015 -0 -4.32524 5.2247 5.39686 -3.33096e-006 4.69768e-012 -2.14454e-007 0.0148259 -9.17122 -0.704609 2.1149 -1.13755 19.5901 -2.56252 7.51164 0.173145 -0.206298 -3.58903 -0.406547 0 7.95139e-016 -0 
10.7239 103.38 -4.70961 6.77554 5.38845 1.24158 3.08492 6.97878 0.205602 6.21435 13.9586 0.0302709 6.21604 13.9589 0.0363962 4.20621 9.22831 -6.76683 25.8035 2.54601 4.44924 43.2708 21.5999 -53.7262 2.37107e-007 -4.81506e-007 -2.66346e-007 6.17404 1.93665 65.668 0.173037 -10.2867 -0.290105 -20.0061 -1.33166 4.03723 62.8132 2.74786 -1.20184 62.8132 2.74786 -1.20183 -14.0833 1.0224 -1.37314 -31.271 -44.6887 -12.8689 -2.26607e-007 -4.29426e-006 3.41135e-007 -7.55863 5.83364 -106.148 -0.399871 -35.0766 0.946931 -10.5988 0.0937434 14.5132 -62.8132 2.74786 1.20184 -62.8132 2.74786 1.20183 -19.6097 -26.0512 -4.86765 -6.66193e-006 9.38264e-012 -4.28911e-007 0.249985 14.1444 -1.12407 -1.19599 -0.756601 -11.5028 9.71496 -2.93795 -0.267222 0.000898455 -0.0161477 -0.197901 -7.95139e-016 0 3.18055e-015 -4.13826 5.95984 3.56871 -3.33096e-006 4.6945e-012 -2.14454e-007 0.00383231 -11.1298 -0.84775 2.67485 -1.29923 24.3283 -3.65048 7.79071 0.144259 -0.274113 -3.65199 -0.647463 -3.97569e-016 7.95139e-016 -3.18056e-015 
9.39078 102.451 -3.35555 8.04758 6.84047 -0.485874 3.24331 6.60388 0.243957 6.52315 13.2111 0.119944 6.52559 13.212 0.128226 7.84014 8.64687 -10.5275 26.8878 2.45825 3.94762 37.4772 21.0494 -55.8363 2.37107e-007 -4.81506e-007 -2.66346e-007 6.23863 2.01567 66.6454 0.179762 -10.7544 -0.302739 -19.8073 -1.3335 4.02171 62.8132 2.74786 -1.20184 62.8132 2.74786 -1.20183 -12.5826 0.934583 -1.23629 -22.2864 -28.8653 -1.45255 -2.26607e-007 -4.29426e-006 3.41135e-007 -7.53947 5.27906 -100.824 -0.296895 -20.3182 0.555384 -9.99815 0.203494 8.39189 -62.8132 2.74786 1.20184 -62.8132 2.74786 1.20183 -20.8971 -33.936 -5.74473 -6.66193e-006 9.39218e-012 -4.28911e-007 0.580792 23.2781 -1.93067 -1.10608 -0.710844 -10.6838 9.65701 -7.3271 0.551666 -0.329375 -0.0769479 -0.362828 3.97569e-016 0 1.59028e-015 -0.314259 -8.5302 2.86549 -3.33096e-006 4.6945e-012 -2.14454e-007 -0.228377 13.3886 1.03442 2.07879 -1.12538 19.2804 -11.7921 2.94359 0.605795 -0.00256989 -10.7465 -0.209372 -1.59028e-015 1.59028e-015 3.18056e-015 
8.0893 100.745 -1.92537 9.67458 7.36704 -1.77625 3.34451 6.56268 0.207486 6.73158 13.1263 0.0331165 6.73273 13.1267 0.0369085 9.9337 5.00338 -14.1406 27.5136 2.35466 3.50279 32.2936 19.6231 -57.2381 2.37107e-007 -4.81506e-007 -2.66346e-007 6.33053 2.13291 68.0727 0.190782 -11.5356 -0.32376 -20.6266 -1.48308 4.43239 62.8132 2.74786 -1.20184 62.8132 2.74786 -1.20183 -10.5615 0.79396 -0.922802 -20.0631 -11.1839 4.94827 -2.26607e-007 -4.29426e-006 3.41135e-007 -7.44917 4.62112 -94.4534 -0.132756 -7.61409 0.217174 -6.45436 0.280531 3.48992 -62.8132 2.74786 1.20184 -62.8132 2.74786 1.20183 -22.6168 -40.1613 -6.91549 -6.66193e-006 9.38264e-012 -4.28911e-007 0.910824 29.5403 -2.56336 -0.768298 -0.523982 -7.54976 8.5173 -5.3148 0.417643 -0.50382 -0.0475935 -0.193557 3.97569e-016 0 -1.59028e-015 3.72403 -21.6932 3.92189 -3.33096e-006 4.69768e-012 -2.14454e-007 -1.24118 34.4217 3.12091 1.51718 -0.907176 14.3842 -18.6904 2.82928 1.10906 0.184552 -19.8389 -0.198265 8.82781e-032 -1.59028e-015 3.18056e-015 
6.81864 98.3589 -0.30715 11.1044 7.13073 -2.8701 3.5395 6.82868 0.132446 7.13997 13.6524 -0.166379 7.13979 13.6524 -0.167015 10.9745 -0.447445 -17.7448 27.5218 2.2476 3.17335 27.0835 17.0674 -58.1682 2.37107e-007 -4.81506e-007 -2.66346e-007 6.46099 2.30971 70.183 0.197617 -12.0297 -0.337006 -21.8268 -1.6906 4.95211 62.8132 2.74786 -1.20184 62.8132 2.74786 -1.20183 -8.49813 0.680592 -0.759668 -21.3169 7.20221 9.74069 -2.26607e-007 -4.29426e-006 3.41135e-007 -7.26203 3.9016 -87.3178 0.0140193 0.71842 -0.0213855 -0.399978 0.176972 0.777501 -62.8132 2.74786 1.20184 -62.8132 2.74786 1.20183 -24.4952 -45.2081 -8.12429 -6.66193e-006 9.38264e-012 -4.28911e-007 1.28735 35.0479 -3.18647 -0.403542 -0.293668 -4.04879 7.46679 -1.48759 0.100937 -0.67575 -0.0355933 -0.0184317 -1.98785e-016 7.95139e-016 1.59028e-015 7.96854 -30.959 4.97372 -3.33096e-006 4.6945e-012 -2.14454e-007 -2.52004 46.9048 4.91658 1.2697 -0.792884 12.1701 -21.7908 9.17812 3.57369 -1.90576 -29.6678 0.256614 1.59028e-015 3.18056e-015 -6.36111e-015 
5.55586 95.5108 1.57908 11.9574 6.36361 -4.34787 3.87837 7.35928 0.0351678 7.84951 14.7038 -0.441647 7.84922 14.7039 -0.44166 11.3459 -5.63494 -21.1335 27.182 2.13836 2.91047 21.0231 13.8886 -58.4557 2.37107e-007 -4.81506e-007 -2.66346e-007 6.61823 2.54401 72.8829 0.202385 -12.3789 -0.346347 -23.4672 -1.94191 5.58485 62.8132 2.74786 -1.20184 62.8132 2.74786 -1.20183 -6.85666 0.678752 -1.17755 -25.3532 25.7177 15.5445 -2.26607e-007 -4.29426e-006 3.41135e-007 -6.95076 3.13496 -79.3865 0.0731663 3.60913 -0.109322 6.70691 -0.0299127 -0.0720483 -62.8132 2.74786 1.20184 -62.8132 2.74786 1.20183 -26.2945 -50.5518 -9.83469 -6.66193e-006 9.389e-012 -4.28911e-007 2.10773 43.6435 -4.37177 -0.195903 -0.148013 -1.99131 6.47237 -1.58662 0.166241 -0.476894 -0.201678 -0.0496358 9.93923e-017 1.19271e-015 1.59028e-015 13.5405 -40.0297 7.42649 -3.33096e-006 4.69132e-012 -2.14454e-007 -4.59148 57.8261 7.41209 0.99391 -0.651425 9.65331 -22.5659 19.0369 6.93127 -7.15235 -40.6711 0.848927 1.59028e-015 9.54167e-015 -0 
4.35923 92.5168 3.71055 12.3118 4.91752 -6.90847 4.22383 8.24639 -0.136001 8.60285 16.4595 -0.906926 8.60259 16.4595 -0.906837 11.0263 -9.08203 -23.3396 27.2215 2.04014 2.61093 14.1444 10.5446 -57.1707 2.37107e-007 -4.81506e-007 -2.66346e-007 6.76907 2.79317 75.6741 0.221913 -13.8508 -0.385537 -26.9488 -2.32651 6.98364 62.8132 2.74786 -1.20184 62.8132 2.74786 -1.20183 -5.85854 0.793468 -2.32597 -33.188 41.988 24.7359 -2.26607e-007 -4.29426e-006 3.41135e-007 -6.46111 2.31002 -70.1835 0.0328434 1.6628 -0.0497696 11.9972 -0.205127 -0.412195 -62.8132 2.74786 1.20184 -62.8132 2.74786 1.20183 -27.7734 -55.5967 -12.8238 -6.66193e-006 9.38582e-012 -4.28911e-007 3.45613 52.7071 -6.08075 0.0437997 0.0345896 0.452467 4.13428 -3.40369 0.471303 -0.445631 -0.185006 -0.0967714 -2.20695e-032 3.97569e-016 3.18055e-015 19.1707 -46.5326 12.3743 -3.33096e-006 4.70086e-012 -2.14454e-007 -7.19388 65.3976 10.2956 0.462622 -0.333105 4.62516 -20.7778 28.2565 8.0752 -11.3129 -49.6214 1.26547 6.36111e-015 6.36111e-015 -3.18056e-015 
